# xmcd
#
# Track frame offsets: 
#        150
#        15189
#        23716
#        32887
#        44332
#        54926
#        67797
#        78433
#        94899
#        104550
#        119066
#        134840
#
# Disc length: 2026 seconds
#
# Revision: 0
# Processed by: cddbd v1.5.2PL0 Copyright (c) Steve Scherf et al.
# Submitted via: ExactAudioCopy v0.99pb5
#
DISCID=9c07e80c
DTITLE=The Grass Mountain Hobos - Zoot!
DYEAR=2010
DGENRE=Bluegrass
TTITLE0=Hear a Train
TTITLE1=Scrape the Paint
TTITLE2=Blackbird Sing
TTITLE3=Zoot Suit
TTITLE4=Whiskey Night
TTITLE5=Graveyard Shift
TTITLE6=Kansas City Kitty
TTITLE7=Kneel Down and Pray
TTITLE8=Hillbilly Fix
TTITLE9=Get Out
TTITLE10=Lil Guitar
TTITLE11=Ramblin' Letters
EXTD=
EXTT0=
EXTT1=
EXTT2=
EXTT3=
EXTT4=
EXTT5=
EXTT6=
EXTT7=
EXTT8=
EXTT9=
EXTT10=
EXTT11=
PLAYORDER=
